<mxfile host="65bd71144e">
    <diagram id="fDfjpJnyrTjUYUj5VBOh" name="Page-1">
        <mxGraphModel dx="1177" dy="823" grid="1" gridSize="10" guides="1" tooltips="1" connect="1" arrows="1" fold="1" page="1" pageScale="1" pageWidth="850" pageHeight="1100" math="0" shadow="0">
            <root>
                <mxCell id="0"/>
                <mxCell id="1" parent="0"/>
                <mxCell id="2" value="MQTT Broker" style="fontColor=#0066CC;verticalAlign=top;verticalLabelPosition=bottom;labelPosition=center;align=center;html=1;outlineConnect=0;fillColor=#CCCCCC;strokeColor=#6881B3;gradientColor=none;gradientDirection=north;strokeWidth=2;shape=mxgraph.networks.server;" parent="1" vertex="1">
                    <mxGeometry x="500" y="200" width="90" height="100" as="geometry"/>
                </mxCell>
                <mxCell id="3" value="Web Server" style="fontColor=#0066CC;verticalAlign=top;verticalLabelPosition=bottom;labelPosition=center;align=center;html=1;outlineConnect=0;fillColor=#CCCCCC;strokeColor=#6881B3;gradientColor=none;gradientDirection=north;strokeWidth=2;shape=mxgraph.networks.server;" vertex="1" parent="1">
                    <mxGeometry x="190" y="200" width="90" height="100" as="geometry"/>
                </mxCell>
                <mxCell id="4" value="Datenbank fuer Lauterstaerkedaten" style="fontColor=#0066CC;verticalAlign=top;verticalLabelPosition=bottom;labelPosition=center;align=center;html=1;outlineConnect=0;fillColor=#CCCCCC;strokeColor=#6881B3;gradientColor=none;gradientDirection=north;strokeWidth=2;shape=mxgraph.networks.storage;" vertex="1" parent="1">
                    <mxGeometry x="340" y="460" width="100" height="100" as="geometry"/>
                </mxCell>
            </root>
        </mxGraphModel>
    </diagram>
</mxfile>
